<svg width="25" height="25" viewBox="0 0 25 25" fill="none" xmlns="http://www.w3.org/2000/svg">
<circle cx="12.5" cy="12.5" r="12.5" fill="#FF0000"/>
<path d="M16.667 14H19.3337V6H16.667M14.0003 6H8.00033C7.44699 6 6.97366 6.33333 6.77366 6.81333L4.76033 11.5133C4.70033 11.6667 4.66699 11.8267 4.66699 12V13.3333C4.66699 13.687 4.80747 14.0261 5.05752 14.2761C5.30756 14.5262 5.6467 14.6667 6.00033 14.6667H10.207L9.57366 17.7133C9.56033 17.78 9.55366 17.8467 9.55366 17.92C9.55366 18.2 9.66699 18.4467 9.84699 18.6267L10.5537 19.3333L14.9403 14.94C15.187 14.7 15.3337 14.3667 15.3337 14V7.33333C15.3337 6.97971 15.1932 6.64057 14.9431 6.39052C14.6931 6.14048 14.3539 6 14.0003 6Z" fill="white"/>
</svg>
