<svg width="18" height="19" viewBox="0 0 18 19" fill="none" xmlns="http://www.w3.org/2000/svg">
<path d="M9 17.375C7.44248 17.375 5.91992 16.9131 4.62489 16.0478C3.32985 15.1825 2.32049 13.9526 1.72445 12.5136C1.12841 11.0747 0.972461 9.49127 1.27632 7.96367C1.58018 6.43607 2.3302 5.03288 3.43154 3.93154C4.53288 2.8302 5.93607 2.08018 7.46367 1.77632C8.99127 1.47246 10.5747 1.62841 12.0136 2.22445C13.4526 2.82049 14.6825 3.82985 15.5478 5.12489C16.4131 6.41992 16.875 7.94248 16.875 9.5C16.875 11.5886 16.0453 13.5916 14.5685 15.0685C13.0916 16.5453 11.0886 17.375 9 17.375ZM9 2.75C7.66498 2.75 6.35994 3.14588 5.2499 3.88758C4.13987 4.62928 3.27471 5.68349 2.76382 6.91689C2.25293 8.15029 2.11925 9.50749 2.3797 10.8169C2.64015 12.1262 3.28303 13.329 4.22703 14.273C5.17104 15.217 6.37377 15.8599 7.68314 16.1203C8.99252 16.3808 10.3497 16.2471 11.5831 15.7362C12.8165 15.2253 13.8707 14.3601 14.6124 13.2501C15.3541 12.1401 15.75 10.835 15.75 9.5C15.75 7.70979 15.0388 5.9929 13.773 4.72703C12.5071 3.46116 10.7902 2.75 9 2.75Z" fill="black"/>
<path d="M11.5819 12.875L8.4375 9.73063V4.4375H9.5625V9.26375L12.375 12.0819L11.5819 12.875Z" fill="black"/>
</svg>
