<svg width="18" height="19" viewBox="0 0 18 19" fill="none" xmlns="http://www.w3.org/2000/svg">
<path d="M8.21505 8.84497C7.52282 8.84497 6.84613 8.6397 6.27056 8.25512C5.69498 7.87053 5.24638 7.32391 4.98147 6.68436C4.71657 6.04482 4.64725 5.34109 4.7823 4.66216C4.91735 3.98322 5.25069 3.35958 5.74018 2.8701C6.22966 2.38061 6.8533 2.04727 7.53223 1.91222C8.21117 1.77718 8.9149 1.84649 9.55444 2.11139C10.194 2.3763 10.7406 2.8249 11.1252 3.40048C11.5098 3.97605 11.7151 4.65274 11.7151 5.34497C11.7151 6.27323 11.3463 7.16347 10.6899 7.81985C10.0335 8.47622 9.14331 8.84497 8.21505 8.84497ZM8.21505 2.88497C7.7206 2.88497 7.23725 3.03159 6.82613 3.3063C6.415 3.581 6.09457 3.97145 5.90535 4.42826C5.71613 4.88508 5.66662 5.38775 5.76309 5.8727C5.85955 6.35765 6.09765 6.80311 6.44728 7.15274C6.79692 7.50237 7.24237 7.74047 7.72733 7.83694C8.21228 7.9334 8.71494 7.88389 9.17176 7.69467C9.62857 7.50545 10.019 7.18502 10.2937 6.7739C10.5684 6.36278 10.7151 5.87943 10.7151 5.38497C10.7151 5.05667 10.6504 4.73158 10.5247 4.42826C10.3991 4.12495 10.215 3.84935 9.98282 3.61721C9.75067 3.38506 9.47507 3.20091 9.17176 3.07527C8.86845 2.94964 8.54336 2.88497 8.21505 2.88497ZM11.0001 9.44997C8.29426 8.84111 5.46356 9.13437 2.94005 10.285C2.593 10.4508 2.30018 10.7117 2.0957 11.0375C1.89122 11.3632 1.78349 11.7404 1.78505 12.125V15.1C1.78505 15.1656 1.79798 15.2307 1.82311 15.2913C1.84824 15.352 1.88507 15.4071 1.9315 15.4535C1.97793 15.5 2.03305 15.5368 2.09371 15.5619C2.15437 15.587 2.21939 15.6 2.28505 15.6C2.35071 15.6 2.41573 15.587 2.47639 15.5619C2.53706 15.5368 2.59218 15.5 2.6386 15.4535C2.68503 15.4071 2.72186 15.352 2.74699 15.2913C2.77212 15.2307 2.78505 15.1656 2.78505 15.1V12.125C2.7807 11.9303 2.83326 11.7386 2.93629 11.5734C3.03932 11.4082 3.18834 11.2767 3.36505 11.195C4.88519 10.4931 6.54071 10.133 8.21505 10.14C9.15321 10.1388 10.0882 10.2496 11.0001 10.47V9.44997ZM11.0701 14.205H14.1401V14.905H11.0701V14.205Z" fill="black"/>
<path d="M16.585 11.235H14V12.235H16.085V16.42H9V12.235H12.15V12.445C12.15 12.5776 12.2027 12.7048 12.2964 12.7986C12.3902 12.8923 12.5174 12.945 12.65 12.945C12.7826 12.945 12.9098 12.8923 13.0036 12.7986C13.0973 12.7048 13.15 12.5776 13.15 12.445V10.5C13.15 10.3674 13.0973 10.2402 13.0036 10.1464C12.9098 10.0527 12.7826 10 12.65 10C12.5174 10 12.3902 10.0527 12.2964 10.1464C12.2027 10.2402 12.15 10.3674 12.15 10.5V11.235H8.5C8.36739 11.235 8.24021 11.2877 8.14645 11.3814C8.05268 11.4752 8 11.6024 8 11.735V16.92C8 17.0526 8.05268 17.1798 8.14645 17.2736C8.24021 17.3673 8.36739 17.42 8.5 17.42H16.585C16.7176 17.42 16.8448 17.3673 16.9386 17.2736C17.0323 17.1798 17.085 17.0526 17.085 16.92V11.735C17.085 11.6024 17.0323 11.4752 16.9386 11.3814C16.8448 11.2877 16.7176 11.235 16.585 11.235Z" fill="black"/>
</svg>
