<svg width="18" height="19" viewBox="0 0 18 19" fill="none" xmlns="http://www.w3.org/2000/svg">
<path d="M3.46125 15.5C3.11625 15.5 2.82825 15.3845 2.59725 15.1535C2.36625 14.9225 2.2505 14.6343 2.25 14.2887V6.96125C2.25 6.61625 2.36575 6.32825 2.59725 6.09725C2.82875 5.86625 3.11675 5.7505 3.46125 5.75H6.75V4.71125C6.75 4.36625 6.86575 4.07825 7.09725 3.84725C7.32875 3.61625 7.61675 3.5005 7.96125 3.5H10.0388C10.3837 3.5 10.672 3.61575 10.9035 3.84725C11.135 4.07875 11.2505 4.36675 11.25 4.71125V5.75H14.5387C14.8837 5.75 15.1718 5.86575 15.4028 6.09725C15.6338 6.32875 15.7495 6.61675 15.75 6.96125V14.2887C15.75 14.6337 15.6345 14.9218 15.4035 15.1528C15.1725 15.3838 14.8843 15.4995 14.5387 15.5H3.46125ZM3.46125 14.75H14.5387C14.6538 14.75 14.7595 14.702 14.856 14.606C14.9525 14.51 15.0005 14.4043 15 14.2887V6.96125C15 6.84625 14.952 6.7405 14.856 6.644C14.76 6.5475 14.6543 6.4995 14.5387 6.5H3.46125C3.34625 6.5 3.2405 6.548 3.144 6.644C3.0475 6.74 2.9995 6.84575 3 6.96125V14.2887C3 14.4038 3.048 14.5095 3.144 14.606C3.24 14.7025 3.34575 14.7505 3.46125 14.75ZM7.5 5.75H10.5V4.71125C10.5 4.59625 10.452 4.4905 10.356 4.394C10.26 4.2975 10.1543 4.2495 10.0388 4.25H7.96125C7.84625 4.25 7.7405 4.298 7.644 4.394C7.5475 4.49 7.4995 4.59575 7.5 4.71125V5.75Z" fill="black"/>
</svg>
