<svg width="25" height="25" viewBox="0 0 25 25" fill="none" xmlns="http://www.w3.org/2000/svg">
<circle cx="12.5" cy="12.5" r="12.5" fill="#187609"/>
<path d="M5 12.8182H11.6818L9.97727 11.1136L10.9318 10.1591L14.2727 13.5L10.9318 16.8409L9.97727 15.8864L11.6818 14.1818H5V12.8182ZM18.6364 6H6.36364C5.61364 6 5 6.61364 5 7.36364V11.5227H6.36364V8.72727H18.6364V18.2727H6.36364V15.5455H5V18.2727C5 19.0227 5.61364 19.6364 6.36364 19.6364H18.6364C19.3864 19.6364 20 19.0227 20 18.2727V7.36364C20 6.61364 19.3864 6 18.6364 6Z" fill="white"/>
</svg>
