<svg width="25" height="25" viewBox="0 0 25 25" fill="none" xmlns="http://www.w3.org/2000/svg">
<circle cx="12.5" cy="12.5" r="12.5" fill="#187609"/>
<path d="M8.7222 13.407C10.5217 13.407 11.9805 11.9461 11.9805 10.1439C11.9805 8.34178 10.5217 6.88086 8.7222 6.88086C6.92267 6.88086 5.46387 8.34178 5.46387 10.1439C5.46387 11.9461 6.92267 13.407 8.7222 13.407Z" fill="white" stroke="white" stroke-width="0.472222" stroke-miterlimit="10"/>
<path d="M8.34408 13.4233C7.59939 14.4476 6.59733 14.8612 5.18066 14.8612C5.85925 14.4088 6.53783 13.523 6.80133 12.8267L8.34408 13.4233Z" fill="white"/>
<path d="M16.2779 17.0049C18.0774 17.0049 19.5362 15.5461 19.5362 13.7466C19.5362 11.9471 18.0774 10.4883 16.2779 10.4883C14.4783 10.4883 13.0195 11.9471 13.0195 13.7466C13.0195 15.5461 14.4783 17.0049 16.2779 17.0049Z" fill="white" stroke="white" stroke-width="0.472222" stroke-miterlimit="10"/>
<path d="M16.6562 17.031C17.4009 18.0552 18.403 18.4689 19.8197 18.4689C19.1411 18.0165 18.4625 17.1306 18.199 16.4343L16.6562 17.031Z" fill="white"/>
<path d="M7.06988 10.6112C7.33068 10.6112 7.5421 10.3998 7.5421 10.139C7.5421 9.87817 7.33068 9.66675 7.06988 9.66675C6.80908 9.66675 6.59766 9.87817 6.59766 10.139C6.59766 10.3998 6.80908 10.6112 7.06988 10.6112Z" fill="black"/>
<path d="M8.72222 10.6112C8.98302 10.6112 9.19444 10.3998 9.19444 10.139C9.19444 9.87817 8.98302 9.66675 8.72222 9.66675C8.46142 9.66675 8.25 9.87817 8.25 10.139C8.25 10.3998 8.46142 10.6112 8.72222 10.6112Z" fill="black"/>
<path d="M10.3746 10.6112C10.6354 10.6112 10.8468 10.3998 10.8468 10.139C10.8468 9.87817 10.6354 9.66675 10.3746 9.66675C10.1138 9.66675 9.90234 9.87817 9.90234 10.139C9.90234 10.3998 10.1138 10.6112 10.3746 10.6112Z" fill="black"/>
<path d="M6.80133 12.8264C6.53783 13.5229 5.85925 14.4086 5.18066 14.861C6.59733 14.861 7.59939 14.4473 8.34408 13.4231" stroke="white" stroke-width="0.472222" stroke-miterlimit="10" stroke-linecap="round" stroke-linejoin="round"/>
<path d="M9.2597 13.4009C10.8298 13.1445 12.0281 11.7814 12.0281 10.1388C12.0281 8.3132 10.5482 6.83325 8.72255 6.83325C6.89694 6.83325 5.41699 8.3132 5.41699 10.1388C5.41699 10.926 5.69206 11.6487 6.1513 12.2166" stroke="white" stroke-width="0.472222" stroke-miterlimit="10" stroke-linecap="round"/>
<path d="M17.9302 14.2189C18.191 14.2189 18.4025 14.0074 18.4025 13.7466C18.4025 13.4858 18.191 13.2744 17.9302 13.2744C17.6694 13.2744 17.458 13.4858 17.458 13.7466C17.458 14.0074 17.6694 14.2189 17.9302 14.2189Z" fill="black"/>
<path d="M16.2779 14.2189C16.5387 14.2189 16.7501 14.0074 16.7501 13.7466C16.7501 13.4858 16.5387 13.2744 16.2779 13.2744C16.0171 13.2744 15.8057 13.4858 15.8057 13.7466C15.8057 14.0074 16.0171 14.2189 16.2779 14.2189Z" fill="black"/>
<path d="M14.6246 14.2189C14.8854 14.2189 15.0968 14.0074 15.0968 13.7466C15.0968 13.4858 14.8854 13.2744 14.6246 13.2744C14.3638 13.2744 14.1523 13.4858 14.1523 13.7466C14.1523 14.0074 14.3638 14.2189 14.6246 14.2189Z" fill="black"/>
<path d="M18.199 16.4343C18.4625 17.1309 19.1411 18.0165 19.8197 18.4689C18.403 18.4689 17.4009 18.0552 16.6562 17.031" stroke="white" stroke-width="0.472222" stroke-miterlimit="10" stroke-linecap="round" stroke-linejoin="round"/>
<path d="M15.7411 17.0088C14.1709 16.7524 12.9727 15.3893 12.9727 13.7467C12.9727 11.9211 14.4526 10.4412 16.2782 10.4412C18.1038 10.4412 19.5838 11.9211 19.5838 13.7467C19.5838 14.5339 19.3087 15.2566 18.8495 15.8245" stroke="white" stroke-width="0.472222" stroke-miterlimit="10" stroke-linecap="round"/>
</svg>
