<svg width="25" height="25" viewBox="0 0 25 25" fill="none" xmlns="http://www.w3.org/2000/svg">
<circle cx="12.5" cy="12.5" r="12.5" fill="#187609"/>
<path d="M19.3337 10.6667C19.3337 10.3131 19.1932 9.97399 18.9431 9.72394C18.6931 9.47389 18.3539 9.33342 18.0003 9.33342H13.787L14.427 6.28675C14.4403 6.22008 14.447 6.14675 14.447 6.07341C14.447 5.80008 14.3337 5.54675 14.1537 5.36675L13.447 4.66675L9.06033 9.05341C8.81366 9.30008 8.66699 9.63341 8.66699 10.0001V16.6667C8.66699 17.0204 8.80747 17.3595 9.05752 17.6096C9.30756 17.8596 9.6467 18.0001 10.0003 18.0001H16.0003C16.5537 18.0001 17.027 17.6667 17.227 17.1867L19.2403 12.4867C19.3003 12.3334 19.3337 12.1734 19.3337 12.0001V10.6667ZM4.66699 18.0001H7.33366V10.0001H4.66699V18.0001Z" fill="white"/>
</svg>
