<svg width="122" height="29" viewBox="0 0 122 29" fill="none" xmlns="http://www.w3.org/2000/svg">
<path d="M10.8878 1.85096C11.9936 1.9984 12.9274 2.07211 13.6891 2.07211C14.1068 2.07211 14.4877 2.05983 14.8317 2.03526C15.1757 2.01068 15.6058 1.97382 16.1218 1.92468C16.5641 1.87553 17.117 1.82639 17.7804 1.77724C18.4439 1.7281 19.2179 1.64209 20.1026 1.51923C19.7831 1.76496 19.5374 2.04754 19.3654 2.36699C19.1934 2.68643 19.0582 2.99359 18.9599 3.28846C18.8616 3.63248 18.7879 3.98878 18.7388 4.35737C18.7142 4.57852 18.7019 5.03312 18.7019 5.72115C18.7265 6.40919 18.7388 7.24466 18.7388 8.22756C18.7634 9.21047 18.7634 10.304 18.7388 11.508C18.7388 12.7121 18.7142 13.9407 18.6651 15.1939C18.6159 16.4225 18.5422 17.6512 18.4439 18.8798C18.3456 20.0839 18.1982 21.2019 18.0016 22.234C17.8296 23.2415 17.5962 24.1261 17.3013 24.8878C17.031 25.625 16.6993 26.141 16.3061 26.4359C15.4952 27.0502 14.6106 27.554 13.6522 27.9471C12.6939 28.3157 11.7479 28.5614 10.8141 28.6843C9.88034 28.8072 8.99573 28.8072 8.16026 28.6843C7.34936 28.586 6.66132 28.3403 6.09615 27.9471C5.72756 27.6768 5.38355 27.2959 5.0641 26.8045C4.74466 26.313 4.44979 25.7724 4.17949 25.1827C3.93376 24.5684 3.70032 23.9418 3.47917 23.3029C3.28259 22.6394 3.11058 22.0374 2.96314 21.4968C2.79113 20.9316 2.65598 20.4402 2.55769 20.0224C2.43483 19.5801 2.34882 19.2853 2.29968 19.1378C2.20139 18.9167 2.04167 18.6955 1.82051 18.4744C1.59936 18.2532 1.36592 18.0566 1.12019 17.8846C0.874466 17.7126 0.665598 17.5897 0.49359 17.516C0.297008 17.4177 0.186432 17.3932 0.161859 17.4423C0.161859 17.4915 0.35844 17.5037 0.751602 17.4792C1.12019 17.43 1.57479 17.3809 2.11538 17.3317C2.65598 17.2826 3.22115 17.2457 3.8109 17.2212C4.40064 17.172 4.89209 17.1597 5.28526 17.1843C5.6047 17.1843 6.02244 17.1966 6.53846 17.2212C6.98077 17.2457 7.54594 17.2703 8.23397 17.2949C8.92201 17.2949 9.76977 17.3194 10.7772 17.3686C10.1384 17.5652 9.62233 17.7863 9.22917 18.0321C8.86058 18.2532 8.57799 18.4621 8.38141 18.6587C8.13568 18.9044 7.96368 19.1501 7.86538 19.3958C7.79167 19.617 7.73024 20.0716 7.68109 20.7596C7.65652 21.4231 7.70566 22.1111 7.82853 22.8237C7.95139 23.5363 8.18483 24.1875 8.52885 24.7772C8.87286 25.367 9.41346 25.6987 10.1506 25.7724C10.937 25.8462 11.5759 25.711 12.0673 25.367C12.5833 24.9984 12.9888 24.5069 13.2837 23.8926C13.5785 23.2783 13.7997 22.5903 13.9471 21.8285C14.0946 21.0668 14.2174 20.3173 14.3157 19.5801C14.3894 19.0887 14.414 18.4006 14.3894 17.516C14.3649 16.6314 14.3034 15.6731 14.2051 14.641C14.1068 13.609 13.984 12.5401 13.8365 11.4343C13.7137 10.3285 13.5908 9.30876 13.4679 8.375C13.3451 7.44124 13.2222 6.64263 13.0994 5.97917C13.0011 5.3157 12.9396 4.89797 12.9151 4.72596C12.8168 4.40652 12.6816 4.07479 12.5096 3.73077C12.3622 3.46047 12.1533 3.15331 11.883 2.80929C11.6373 2.46528 11.3056 2.14583 10.8878 1.85096ZM34.4776 0.708332C35.8045 0.757477 37.1437 1.0032 38.4952 1.44551C39.8713 1.86325 41.1368 2.55128 42.2917 3.50961C43.4466 4.44338 44.4295 5.65972 45.2404 7.15865C46.0513 8.63301 46.555 10.4391 46.7516 12.5769C46.9236 14.3216 46.7025 16.054 46.0881 17.774C45.4984 19.4696 44.6752 21.0299 43.6186 22.4551C42.562 23.8803 41.3456 25.0967 39.9696 26.1042C38.5935 27.0871 37.2174 27.7382 35.8413 28.0577C35.0059 28.2543 34.0844 28.2788 33.0769 28.1314C32.094 27.9594 31.0865 27.6522 30.0545 27.2099C29.047 26.7431 28.0518 26.1533 27.0689 25.4407C26.1106 24.7281 25.2382 23.9172 24.4519 23.008C23.6656 22.0743 23.0021 21.0668 22.4615 19.9856C21.9455 18.9044 21.6261 17.774 21.5032 16.5946C21.3803 15.6116 21.3681 14.5304 21.4663 13.351C21.5892 12.1469 21.8226 10.9551 22.1667 9.77564C22.5353 8.57158 23.039 7.41667 23.6779 6.3109C24.3413 5.18055 25.1768 4.19765 26.1843 3.36218C27.1918 2.50214 28.3713 1.83867 29.7228 1.37179C31.0988 0.880341 32.6838 0.659187 34.4776 0.708332ZM27.8798 15.6362C27.5358 18.2655 27.7815 20.3787 28.617 21.976C29.477 23.5732 30.7671 24.5438 32.4872 24.8878C33.3227 25.0598 34.1213 24.8878 34.883 24.3718C35.6693 23.8312 36.3819 23.0572 37.0208 22.0497C37.6597 21.0422 38.2126 19.8627 38.6795 18.5112C39.1464 17.1597 39.4904 15.7468 39.7115 14.2724C39.9327 12.7981 39.945 11.4712 39.7484 10.2917C39.5764 9.08761 39.2692 8.06784 38.8269 7.23237C38.3846 6.37233 37.844 5.70887 37.2051 5.24199C36.5908 4.77511 35.9519 4.51709 35.2885 4.46795C34.1335 4.39423 33.1261 4.70139 32.266 5.38942C31.406 6.05288 30.6811 6.92521 30.0913 8.00641C29.5016 9.08761 29.0224 10.304 28.6538 11.6554C28.3098 13.0069 28.0518 14.3339 27.8798 15.6362ZM46.2724 2.14583C47.0588 2.34241 47.8082 2.48985 48.5208 2.58814C49.2334 2.68643 49.86 2.76015 50.4006 2.80929C51.0395 2.88301 51.6293 2.90758 52.1699 2.88301C52.8579 2.88301 53.7179 2.82158 54.75 2.69872C55.8066 2.57585 56.8878 2.46528 57.9936 2.36699C59.0994 2.24412 60.156 2.1704 61.1635 2.14583C62.1955 2.09669 63.031 2.15812 63.6699 2.33013C64.3088 2.47756 64.9599 2.711 65.6234 3.03045C66.3114 3.32532 66.938 3.7062 67.5032 4.17308C68.0684 4.61538 68.5353 5.1437 68.9038 5.75801C69.2724 6.34776 69.4813 7.0235 69.5305 7.78526C69.5059 8.74359 69.2847 9.64049 68.867 10.476C68.523 11.1886 67.9455 11.9257 67.1346 12.6875C66.3237 13.4247 65.1565 13.9898 63.633 14.383C64.3948 14.4813 65.0459 14.6533 65.5865 14.899C66.1517 15.1202 66.6309 15.3905 67.024 15.7099C67.4418 16.0048 67.7735 16.3365 68.0192 16.7051C68.2895 17.0737 68.4984 17.4423 68.6458 17.8109C69.0144 18.6709 69.1864 19.6293 69.1619 20.6859C69.0144 22.062 68.7318 23.1554 68.3141 23.9663C67.9209 24.7772 67.4663 25.4038 66.9503 25.8462C66.4343 26.2885 65.906 26.5956 65.3654 26.7676C64.8248 26.9396 64.3333 27.0748 63.891 27.1731C63.4487 27.2714 62.9081 27.3205 62.2692 27.3205C61.6303 27.3205 60.9423 27.3082 60.2051 27.2837C59.4925 27.2345 58.7553 27.1976 57.9936 27.1731C57.2318 27.1239 56.5069 27.1239 55.8189 27.1731C55.2537 27.2222 54.5657 27.2714 53.7548 27.3205C53.0668 27.3697 52.2067 27.4311 51.1747 27.5048C50.1426 27.554 48.9386 27.6154 47.5625 27.6891C47.8328 27.4925 48.054 27.2714 48.226 27.0256C48.4225 26.7553 48.5823 26.5219 48.7051 26.3253C48.828 26.0796 48.9386 25.8462 49.0369 25.625C49.1106 25.4284 49.172 24.8878 49.2212 24.0032C49.2703 23.1186 49.3072 22.062 49.3317 20.8333C49.3563 19.5801 49.3686 18.2409 49.3686 16.8157C49.3932 15.3659 49.3809 13.9776 49.3317 12.6506C49.3072 11.2991 49.258 10.1074 49.1843 9.07532C49.1352 8.0187 49.0614 7.25694 48.9631 6.79006C48.8157 6.27404 48.6191 5.74573 48.3734 5.20513C48.1768 4.73825 47.8942 4.23451 47.5256 3.69391C47.1816 3.15331 46.7639 2.63729 46.2724 2.14583ZM54.0497 5.90545C54.0497 6.00374 54.062 6.33547 54.0865 6.90064C54.1111 7.39209 54.1357 8.15385 54.1603 9.1859C54.2094 10.1934 54.2708 11.6309 54.3446 13.4984C54.9589 13.7687 55.5609 13.9161 56.1506 13.9407C56.7404 13.9407 57.2687 13.9161 57.7356 13.867C58.2762 13.7933 58.7922 13.6704 59.2837 13.4984C59.9471 13.2281 60.4631 12.7858 60.8317 12.1715C61.2249 11.5572 61.4829 10.9183 61.6058 10.2548C61.7532 9.56677 61.7901 8.92788 61.7163 8.33814C61.6426 7.72382 61.4829 7.28152 61.2372 7.01122C60.7703 6.59348 60.1928 6.24946 59.5048 5.97917C58.9151 5.75801 58.1656 5.61058 57.2564 5.53686C56.3718 5.43857 55.3029 5.56143 54.0497 5.90545ZM53.8654 23.3766C54.7746 23.8435 55.5732 24.1506 56.2612 24.2981C56.9493 24.4455 57.5267 24.5192 57.9936 24.5192C58.5342 24.5192 59.0011 24.4455 59.3942 24.2981C59.8611 24.0769 60.3157 23.7821 60.758 23.4135C61.2249 23.0203 61.5689 22.5657 61.7901 22.0497C62.0358 21.5091 62.1341 20.9193 62.0849 20.2804C62.0358 19.617 61.7532 18.8921 61.2372 18.1058C60.7703 17.5406 60.2051 17.0983 59.5417 16.7788C58.9519 16.5085 58.2025 16.3365 57.2933 16.2628C56.4087 16.1891 55.3152 16.398 54.0128 16.8894L53.8654 23.3766Z" fill="black"/>
<path d="M70.4888 2.07211C71.2751 2.09669 71.9631 2.10897 72.5529 2.10897C73.1426 2.0844 73.6218 2.07211 73.9904 2.07211H75.0593C75.3296 2.04754 75.6613 2.03526 76.0545 2.03526C76.3985 2.03526 76.8162 2.03526 77.3077 2.03526C77.7991 2.03526 78.3643 2.04754 79.0032 2.07211C79.1998 2.76015 79.4209 3.4359 79.6667 4.09936C79.937 4.73825 80.1704 5.3157 80.367 5.83173C80.6127 6.44605 80.8584 7.0235 81.1042 7.5641C81.3499 8.1047 81.6448 8.75588 81.9888 9.51763C82.2837 10.1565 82.64 10.9428 83.0577 11.8766C83.4754 12.7858 83.9669 13.8301 84.5321 15.0096C84.8024 14.2479 85.0481 13.5475 85.2692 12.9087C85.515 12.2698 85.7238 11.7169 85.8958 11.25C86.0924 10.7094 86.2521 10.2179 86.375 9.77564C86.4979 9.33333 86.633 8.79273 86.7805 8.15385C86.9033 7.61325 87.0385 6.96207 87.1859 6.20032C87.3579 5.43857 87.5299 4.55395 87.7019 3.54647C88.4145 3.54647 89.0534 3.54647 89.6186 3.54647C90.1838 3.54647 90.6752 3.53419 91.093 3.50961C91.5598 3.50961 91.9776 3.49733 92.3462 3.47276C92.7393 3.47276 93.2676 3.44818 93.9311 3.39904C94.4963 3.34989 95.2457 3.31303 96.1795 3.28846C97.1378 3.23932 98.3173 3.17788 99.718 3.10417C99.2019 3.47276 98.7842 3.84135 98.4647 4.20993C98.1699 4.55395 97.9364 4.86111 97.7644 5.13141C97.5678 5.45085 97.445 5.75801 97.3958 6.05288C97.3467 6.29861 97.2975 6.86378 97.2484 7.7484C97.2238 8.63301 97.187 9.68964 97.1378 10.9183C97.1133 12.1223 97.0887 13.4124 97.0641 14.7885C97.0641 16.1645 97.0764 17.4669 97.101 18.6955C97.1255 19.9241 97.1624 20.9931 97.2115 21.9022C97.2853 22.7869 97.3836 23.352 97.5064 23.5978C97.6784 23.8926 97.9119 24.2366 98.2067 24.6298C98.477 24.9738 98.8211 25.367 99.2388 25.8093C99.6811 26.2516 100.259 26.7431 100.971 27.2837C99.8408 27.3328 98.8948 27.3697 98.133 27.3942C97.3958 27.4188 96.7815 27.4434 96.2901 27.4679C95.7249 27.4925 95.2703 27.5048 94.9263 27.5048C94.5577 27.5048 94.054 27.5171 93.4151 27.5417C92.8499 27.5662 92.1004 27.6031 91.1667 27.6522C90.2329 27.6768 89.0289 27.726 87.5545 27.7997C87.8985 27.4065 88.218 27.0134 88.5128 26.6202C88.8077 26.227 89.0534 25.8707 89.25 25.5513C89.4957 25.1827 89.7046 24.8264 89.8766 24.4824C90.0486 24.0155 90.1838 23.1677 90.2821 21.9391C90.3803 20.8825 90.4541 19.3713 90.5032 17.4054C90.5524 15.4151 90.5524 12.7489 90.5032 9.40705C90.0363 10.1688 89.6186 10.9306 89.25 11.6923C88.906 12.4295 88.5988 13.1052 88.3285 13.7196C88.0337 14.4322 87.7634 15.1202 87.5176 15.7837C87.2719 16.4717 87.0139 17.2334 86.7436 18.0689C86.4979 18.7815 86.203 19.6293 85.859 20.6122C85.5395 21.5951 85.1709 22.6763 84.7532 23.8558L83.3526 23.9295C83.156 22.9466 82.9594 22.062 82.7628 21.2756C82.5662 20.4647 82.3697 19.7767 82.1731 19.2115C81.9519 18.5481 81.7308 17.9583 81.5096 17.4423C81.2639 16.9263 80.9936 16.3488 80.6987 15.7099C80.4284 15.1693 80.0967 14.5304 79.7035 13.7933C79.3349 13.0561 78.9049 12.2329 78.4135 11.3237C78.1677 13.8301 78.0203 15.8697 77.9712 17.4423C77.922 18.9904 77.922 20.1944 77.9712 21.0545C78.0203 22.0865 78.094 22.836 78.1923 23.3029C78.3397 23.7206 78.5732 24.1875 78.8926 24.7035C79.1629 25.1458 79.5315 25.6741 79.9984 26.2885C80.4899 26.8782 81.1165 27.5417 81.8782 28.2788C81.3376 28.2788 80.7724 28.2788 80.1827 28.2788C79.593 28.2788 79.0524 28.2911 78.5609 28.3157C77.9712 28.3403 77.3937 28.3526 76.8285 28.3526C76.2388 28.3771 75.5508 28.414 74.7644 28.4631C74.0764 28.5123 73.2532 28.5614 72.2949 28.6106C71.3365 28.6597 70.2308 28.7457 68.9776 28.8686C69.5182 28.5246 69.9605 28.1928 70.3045 27.8734C70.6485 27.5294 70.9188 27.2222 71.1154 26.9519C71.3611 26.6325 71.5454 26.313 71.6683 25.9936C71.742 25.797 71.8034 25.367 71.8526 24.7035C71.9263 24.0401 71.9877 23.2292 72.0369 22.2708C72.1106 21.3125 72.1597 20.2436 72.1843 19.0641C72.2334 17.8846 72.2703 16.6928 72.2949 15.4888C72.344 14.2601 72.3809 13.0684 72.4055 11.9135C72.43 10.734 72.4423 9.67735 72.4423 8.74359C72.4669 7.78526 72.4792 6.98664 72.4792 6.34776C72.4792 5.70887 72.4792 5.30342 72.4792 5.13141C72.4055 4.76282 72.2949 4.39423 72.1474 4.02564C72.0246 3.7062 71.828 3.37446 71.5577 3.03045C71.2874 2.68643 70.9311 2.36699 70.4888 2.07211ZM98.9071 3.32532C100.627 3.37446 102.052 3.41132 103.183 3.4359C104.338 3.4359 105.271 3.4359 105.984 3.4359H107.938H118.921C118.971 3.92735 119.007 4.40652 119.032 4.8734C119.081 5.3157 119.106 5.70887 119.106 6.05288C119.106 6.47062 119.093 6.85149 119.069 7.19551C119.044 7.53953 119.007 7.90812 118.958 8.30128C118.909 8.6453 118.86 9.01389 118.811 9.40705C118.762 9.80021 118.676 10.2057 118.553 10.6234C118.209 9.29647 117.742 8.28899 117.152 7.60096C116.587 6.91293 116.01 6.40919 115.42 6.08974C114.732 5.72115 114.007 5.52457 113.245 5.5C112.238 5.54914 111.451 5.63515 110.886 5.75801C110.321 5.88088 109.879 6.05288 109.559 6.27404C109.24 6.49519 108.994 6.7532 108.822 7.04808C108.675 7.31838 108.515 7.62553 108.343 7.96955C108.196 8.26442 108.06 8.71902 107.938 9.33333C107.815 9.84936 107.692 10.5497 107.569 11.4343C107.471 12.3189 107.36 13.4615 107.237 14.8622C107.901 14.6656 108.429 14.4813 108.822 14.3093C109.24 14.1373 109.572 13.9898 109.817 13.867C110.088 13.7196 110.284 13.5844 110.407 13.4615C110.505 13.3141 110.653 13.0438 110.849 12.6506C110.997 12.3066 111.193 11.8397 111.439 11.25C111.709 10.6603 112.029 9.84936 112.397 8.81731C112.447 9.94765 112.471 10.8937 112.471 11.6554C112.471 12.3926 112.483 12.9947 112.508 13.4615C112.508 14.0021 112.52 14.4322 112.545 14.7516V16.1522C112.545 16.6683 112.545 17.3686 112.545 18.2532C112.569 19.1132 112.606 20.2067 112.655 21.5337C112.361 20.6245 112.09 19.9119 111.845 19.3958C111.623 18.8552 111.427 18.4498 111.255 18.1795C111.058 17.86 110.886 17.6389 110.739 17.516C110.567 17.4669 110.333 17.4177 110.038 17.3686C109.768 17.344 109.424 17.3317 109.006 17.3317C108.613 17.3317 108.11 17.3932 107.495 17.516C107.421 18.8675 107.409 19.961 107.458 20.7965C107.532 21.6074 107.63 22.234 107.753 22.6763C107.876 23.1923 108.024 23.5609 108.196 23.7821C108.417 24.0032 108.859 24.1875 109.522 24.3349C110.186 24.4578 110.935 24.5069 111.771 24.4824C112.631 24.4332 113.503 24.2858 114.388 24.0401C115.272 23.7943 116.059 23.3889 116.747 22.8237C117.263 22.3568 117.816 21.7671 118.405 21.0545C118.897 20.4402 119.438 19.6661 120.027 18.7324C120.642 17.7986 121.244 16.6683 121.833 15.3413C121.735 16.4471 121.661 17.3686 121.612 18.1058C121.588 18.8184 121.551 19.3958 121.502 19.8381C121.452 20.3542 121.416 20.7473 121.391 21.0176C121.391 21.3125 121.354 21.7302 121.28 22.2708C121.231 22.7377 121.145 23.3766 121.022 24.1875C120.924 24.9738 120.789 25.9813 120.617 27.2099C119.462 27.2345 118.369 27.2591 117.337 27.2837C116.304 27.2837 115.395 27.2959 114.609 27.3205C113.675 27.3451 112.815 27.3697 112.029 27.3942C111.218 27.3942 110.321 27.4311 109.338 27.5048C108.478 27.554 107.458 27.6277 106.279 27.726C105.124 27.8243 103.846 27.9594 102.446 28.1314C102.568 26.4605 102.654 24.8878 102.704 23.4135C102.777 21.9145 102.826 20.5999 102.851 19.4696C102.876 18.1426 102.876 16.914 102.851 15.7837C102.974 12.9578 102.925 10.6725 102.704 8.92788C102.482 7.18323 102.224 6.06517 101.929 5.57372C101.782 5.40171 101.573 5.19284 101.303 4.94711C101.082 4.75053 100.775 4.51709 100.381 4.24679C99.9883 3.97649 99.4968 3.66934 98.9071 3.32532Z" fill="#0DCAF0" fill-opacity="0.941176"/>
</svg>
