<svg width="18" height="19" viewBox="0 0 18 19" fill="none" xmlns="http://www.w3.org/2000/svg">
<path d="M9 10.625C8.44374 10.625 7.89997 10.4601 7.43746 10.151C6.97495 9.84197 6.61446 9.40272 6.40159 8.8888C6.18872 8.37488 6.13302 7.80938 6.24154 7.26381C6.35006 6.71824 6.61793 6.2171 7.01126 5.82376C7.4046 5.43043 7.90574 5.16256 8.45131 5.05404C8.99688 4.94552 9.56238 5.00122 10.0763 5.21409C10.5902 5.42696 11.0295 5.78745 11.3385 6.24996C11.6476 6.71247 11.8125 7.25624 11.8125 7.8125C11.8116 8.55815 11.515 9.273 10.9878 9.80025C10.4605 10.3275 9.74565 10.6241 9 10.625ZM9 6.125C8.66625 6.125 8.33998 6.22397 8.06248 6.4094C7.78497 6.59482 7.56868 6.85837 7.44095 7.16672C7.31323 7.47507 7.27981 7.81437 7.34493 8.14172C7.41004 8.46906 7.57076 8.76974 7.80676 9.00574C8.04276 9.24175 8.34344 9.40246 8.67079 9.46758C8.99813 9.53269 9.33743 9.49927 9.64578 9.37155C9.95413 9.24383 10.2177 9.02753 10.4031 8.75003C10.5885 8.47252 10.6875 8.14626 10.6875 7.8125C10.6871 7.36509 10.5091 6.93612 10.1928 6.61975C9.87638 6.30338 9.44742 6.12545 9 6.125Z" fill="black"/>
<path d="M9.00001 17.375L4.25476 11.7787C4.18882 11.6947 4.12357 11.6101 4.05901 11.525C3.24843 10.4573 2.81054 9.15306 2.81251 7.8125C2.81251 6.17147 3.4644 4.59766 4.62478 3.43728C5.78516 2.2769 7.35898 1.625 9.00001 1.625C10.641 1.625 12.2148 2.2769 13.3752 3.43728C14.5356 4.59766 15.1875 6.17147 15.1875 7.8125C15.1895 9.15245 14.7518 10.4561 13.9416 11.5233L13.941 11.525C13.941 11.525 13.7723 11.7466 13.7469 11.7764L9.00001 17.375ZM4.95732 10.8472C4.95732 10.8472 5.08838 11.0204 5.11819 11.0576L9.00001 15.6358L12.8869 11.0514C12.9116 11.0204 13.0433 10.8461 13.0438 10.8455C13.706 9.97313 14.0638 8.9077 14.0625 7.8125C14.0625 6.46984 13.5291 5.18217 12.5797 4.23277C11.6303 3.28337 10.3427 2.75 9.00001 2.75C7.65735 2.75 6.36968 3.28337 5.42028 4.23277C4.47088 5.18217 3.93751 6.46984 3.93751 7.8125C3.93633 8.90838 4.29457 9.97442 4.95732 10.8472Z" fill="black"/>
</svg>
