<svg width="28" height="28" viewBox="0 0 28 28" fill="none" xmlns="http://www.w3.org/2000/svg">
<path fill-rule="evenodd" clip-rule="evenodd" d="M7.73305 6.18644C7.73305 4.54569 8.38484 2.97215 9.54502 1.81197C10.7052 0.651784 12.2787 0 13.9195 0C15.5602 0 17.1338 0.651784 18.294 1.81197C19.4541 2.97215 20.1059 4.54569 20.1059 6.18644C20.1059 7.82719 19.4541 9.40073 18.294 10.5609C17.1338 11.7211 15.5602 12.3729 13.9195 12.3729C12.2787 12.3729 10.7052 11.7211 9.54502 10.5609C8.38484 9.40073 7.73305 7.82719 7.73305 6.18644ZM7.73305 15.4661C5.68212 15.4661 3.71519 16.2808 2.26496 17.7311C0.81473 19.1813 0 21.1482 0 23.1992C0 24.4297 0.488838 25.6099 1.35898 26.48C2.22911 27.3501 3.40927 27.839 4.63983 27.839H23.1992C24.4297 27.839 25.6099 27.3501 26.48 26.48C27.3501 25.6099 27.839 24.4297 27.839 23.1992C27.839 21.1482 27.0243 19.1813 25.574 17.7311C24.1238 16.2808 22.1569 15.4661 20.1059 15.4661H7.73305Z" fill="black"/>
</svg>
