<svg width="18" height="19" viewBox="0 0 18 19" fill="none" xmlns="http://www.w3.org/2000/svg">
<g clip-path="url(#clip0_1935_2604)">
<path d="M12.9999 11.075C12.7678 10.6632 12.4537 10.3034 12.0771 10.0179C11.7004 9.73237 11.2691 9.52717 10.8099 9.415C10.3791 9.28574 9.94183 9.17893 9.49992 9.095V4.56C10.3785 4.65424 11.2167 4.97847 11.9299 5.5C11.9792 5.54366 12.0365 5.5772 12.0987 5.5987C12.1609 5.62019 12.2268 5.62922 12.2925 5.62528C12.3582 5.62133 12.4224 5.60448 12.4816 5.5757C12.5408 5.54691 12.5938 5.50675 12.6374 5.4575C12.6811 5.40825 12.7146 5.35089 12.7361 5.28868C12.7576 5.22648 12.7666 5.16065 12.7627 5.09495C12.7587 5.02925 12.7419 4.96497 12.7131 4.90579C12.6843 4.8466 12.6442 4.79366 12.5949 4.75C11.7001 4.0608 10.6255 3.64417 9.49992 3.55V2C9.49992 1.86739 9.44724 1.74021 9.35347 1.64645C9.2597 1.55268 9.13253 1.5 8.99992 1.5C8.86731 1.5 8.74013 1.55268 8.64636 1.64645C8.5526 1.74021 8.49992 1.86739 8.49992 2V3.5C6.29992 3.55 5.08492 4.645 4.71492 5.59C4.46809 6.19852 4.44463 6.87478 4.64872 7.49894C4.85281 8.12309 5.27126 8.65486 5.82992 9C6.64311 9.49572 7.55396 9.80957 8.49992 9.92V14.5C7.19457 14.4343 5.94411 13.9544 4.92992 13.13C4.88466 13.0761 4.82854 13.0324 4.76523 13.0017C4.70192 12.9711 4.63285 12.9541 4.56253 12.9519C4.49221 12.9497 4.42223 12.9624 4.35715 12.9892C4.29207 13.0159 4.23336 13.0561 4.18487 13.107C4.13638 13.158 4.09919 13.2186 4.07573 13.285C4.05227 13.3513 4.04308 13.4218 4.04874 13.4919C4.05441 13.5621 4.07481 13.6302 4.10862 13.6919C4.14242 13.7536 4.18887 13.8075 4.24492 13.85C5.44088 14.8569 6.93779 15.4374 8.49992 15.5V17C8.49992 17.1326 8.5526 17.2598 8.64636 17.3536C8.74013 17.4473 8.86731 17.5 8.99992 17.5C9.13253 17.5 9.2597 17.4473 9.35347 17.3536C9.44724 17.2598 9.49992 17.1326 9.49992 17V15.5C10.9099 15.405 12.5349 14.955 13.1499 13.12C13.2612 12.7861 13.3052 12.4335 13.2795 12.0825C13.2537 11.7315 13.1587 11.3891 12.9999 11.075ZM6.39492 8.16C6.02982 7.94267 5.75421 7.60223 5.61765 7.19988C5.48109 6.79753 5.49253 6.35967 5.64992 5.965C5.70492 5.815 6.26492 4.56 8.49992 4.5V8.9C7.75404 8.80402 7.03678 8.55187 6.39492 8.16ZM12.1999 12.78C11.8399 13.85 11.0399 14.365 9.49992 14.48V10.115C9.81992 10.185 10.1499 10.265 10.4999 10.37C10.8305 10.4451 11.1424 10.5867 11.4166 10.7861C11.6908 10.9855 11.9216 11.2386 12.0949 11.53C12.291 11.9172 12.3287 12.3655 12.1999 12.78Z" fill="black"/>
</g>
<defs>
<clipPath id="clip0_1935_2604">
<rect width="18" height="18" fill="white" transform="translate(0 0.5)"/>
</clipPath>
</defs>
</svg>
