<svg width="145" height="145" viewBox="0 0 145 145" fill="none" xmlns="http://www.w3.org/2000/svg">
<path d="M72.4999 0.944336C58.3476 0.944336 44.513 5.141 32.7458 13.0036C20.9785 20.8662 11.8071 32.0417 6.39121 45.1168C0.97534 58.1918 -0.441699 72.5793 2.31929 86.4597C5.08028 100.34 11.8953 113.09 21.9025 123.097C31.9097 133.105 44.6597 139.92 58.5401 142.681C72.4206 145.442 86.808 144.024 99.883 138.609C112.958 133.193 124.134 124.021 131.996 112.254C139.859 100.487 144.055 86.6522 144.055 72.4999C144.055 53.5222 136.517 35.3217 123.097 21.9025C109.678 8.4832 91.4776 0.944336 72.4999 0.944336ZM119.235 48.4841L60.4697 107.204L25.7652 72.4999C24.5791 71.3138 23.9127 69.7051 23.9127 68.0277C23.9127 66.3503 24.5791 64.7416 25.7652 63.5555C26.9513 62.3693 28.56 61.703 30.2374 61.703C31.9148 61.703 33.5235 62.3693 34.7096 63.5555L60.5591 89.4049L110.38 39.6291C110.967 39.0418 111.664 38.5759 112.432 38.258C113.199 37.9402 114.021 37.7766 114.852 37.7766C115.682 37.7766 116.505 37.9402 117.272 38.258C118.04 38.5759 118.737 39.0418 119.324 39.6291C119.911 40.2164 120.377 40.9136 120.695 41.6809C121.013 42.4483 121.177 43.2707 121.177 44.1013C121.177 44.9318 121.013 45.7543 120.695 46.5216C120.377 47.289 119.911 47.9862 119.324 48.5735L119.235 48.4841Z" fill="#0DCAF0"/>
</svg>
