<svg width="55" height="55" viewBox="0 0 55 55" fill="none" xmlns="http://www.w3.org/2000/svg">
<path fill-rule="evenodd" clip-rule="evenodd" d="M15.2778 12.2222C15.2778 8.98069 16.5655 5.87192 18.8576 3.57981C21.1497 1.28769 24.2585 0 27.5 0C30.7415 0 33.8503 1.28769 36.1424 3.57981C38.4345 5.87192 39.7222 8.98069 39.7222 12.2222C39.7222 15.4638 38.4345 18.5725 36.1424 20.8646C33.8503 23.1567 30.7415 24.4444 27.5 24.4444C24.2585 24.4444 21.1497 23.1567 18.8576 20.8646C16.5655 18.5725 15.2778 15.4638 15.2778 12.2222ZM15.2778 30.5556C11.2259 30.5556 7.3399 32.1652 4.47476 35.0303C1.60962 37.8955 0 41.7814 0 45.8333C0 48.2645 0.965771 50.5961 2.68485 52.3151C4.40394 54.0342 6.73552 55 9.16667 55H45.8333C48.2645 55 50.5961 54.0342 52.3151 52.3151C54.0342 50.5961 55 48.2645 55 45.8333C55 41.7814 53.3904 37.8955 50.5252 35.0303C47.6601 32.1652 43.7741 30.5556 39.7222 30.5556H15.2778Z" fill="#0DCAF0" fill-opacity="0.941176"/>
</svg>
