<svg width="55" height="55" viewBox="0 0 55 55" fill="none" xmlns="http://www.w3.org/2000/svg">
<g clip-path="url(#clip0_1935_1872)">
<path d="M27.5 0C36.9927 0 44.6875 7.69484 44.6875 17.1875C44.6875 26.6802 36.9927 34.375 27.5 34.375C18.0073 34.375 10.3125 26.6802 10.3125 17.1875C10.3125 7.69484 18.0073 0 27.5 0ZM27.5 3.4375C23.8533 3.4375 20.3559 4.88616 17.7773 7.46478C15.1987 10.0434 13.75 13.5408 13.75 17.1875C13.75 20.8342 15.1987 24.3316 17.7773 26.9102C20.3559 29.4888 23.8533 30.9375 27.5 30.9375C31.1467 30.9375 34.6441 29.4888 37.2227 26.9102C39.8013 24.3316 41.25 20.8342 41.25 17.1875C41.25 13.5408 39.8013 10.0434 37.2227 7.46478C34.6441 4.88616 31.1467 3.4375 27.5 3.4375Z" fill="#0DCAF0" fill-opacity="0.941176"/>
<path d="M14.4373 33.1513C15.284 33.8438 16.184 34.4685 17.1289 35.0195L12.478 40.7034C13.4517 42.0736 13.8898 43.7531 13.7093 45.4243C13.5288 47.0956 12.7423 48.6428 11.4984 49.7734C10.2545 50.9041 8.63953 51.5399 6.9587 51.5606C5.27786 51.5813 3.64769 50.9855 2.37635 49.8858C1.10502 48.7861 0.280632 47.2587 0.0590392 45.5924C-0.162554 43.9261 0.234005 42.2364 1.17375 40.8426C2.11349 39.4489 3.53129 38.4477 5.15911 38.0284C6.78694 37.6091 8.51198 37.8007 10.0081 38.567L14.4373 33.1513ZM40.5623 33.1513L44.9916 38.5653C46.4877 37.799 48.2127 37.6074 49.8406 38.0267C51.4684 38.446 52.8862 39.4472 53.8259 40.8409C54.7657 42.2347 55.1622 43.9244 54.9406 45.5907C54.719 47.257 53.8946 48.7844 52.6233 49.8841C51.352 50.9838 49.7218 51.5796 48.041 51.5589C46.3601 51.5382 44.7451 50.9024 43.5013 49.7717C42.2574 48.641 41.4709 47.0938 41.2904 45.4226C41.1099 43.7514 41.5479 42.0719 42.5217 40.7017L37.8708 35.0195C38.8154 34.4689 39.7165 33.8441 40.5623 33.1513ZM6.87483 41.25C5.96315 41.25 5.08881 41.6122 4.44415 42.2568C3.7995 42.9015 3.43733 43.7758 3.43733 44.6875C3.43733 45.5992 3.7995 46.4735 4.44415 47.1182C5.08881 47.7628 5.96315 48.125 6.87483 48.125C7.78651 48.125 8.66086 47.7628 9.30551 47.1182C9.95017 46.4735 10.3123 45.5992 10.3123 44.6875C10.3123 43.7758 9.95017 42.9015 9.30551 42.2568C8.66086 41.6122 7.78651 41.25 6.87483 41.25ZM48.1248 41.25C47.2132 41.25 46.3388 41.6122 45.6942 42.2568C45.0495 42.9015 44.6873 43.7758 44.6873 44.6875C44.6873 45.5992 45.0495 46.4735 45.6942 47.1182C46.3388 47.7628 47.2132 48.125 48.1248 48.125C49.0365 48.125 49.9109 47.7628 50.5555 47.1182C51.2002 46.4735 51.5623 45.5992 51.5623 44.6875C51.5623 43.7758 51.2002 42.9015 50.5555 42.2568C49.9109 41.6122 49.0365 41.25 48.1248 41.25ZM29.2186 10.3125V15.4688H34.3748V18.9062H29.2186V24.0625H25.7811V18.9062H20.6248V15.4688H25.7811V10.3125H29.2186Z" fill="#0DCAF0" fill-opacity="0.941176"/>
</g>
<defs>
<clipPath id="clip0_1935_1872">
<rect width="55" height="55" fill="white"/>
</clipPath>
</defs>
</svg>
