<svg width="54" height="52" viewBox="0 0 54 52" fill="none" xmlns="http://www.w3.org/2000/svg">
<path d="M53.5237 28.2738L50.4998 31.2978L44.3007 25.0987L47.3247 22.0748C47.6355 21.77 48.0535 21.5993 48.4889 21.5993C48.9242 21.5993 49.3422 21.77 49.6531 22.0748L53.5237 25.9454C54.1588 26.5804 54.1588 27.6388 53.5237 28.2738ZM24.1915 45.1777L42.5166 26.8526L48.7157 33.0517L30.4208 51.407H24.1915V45.1777ZM24.1915 30.2394C10.8257 30.2394 0 35.6522 0 42.3352V48.383H18.1436V42.6678L30.2394 30.572C28.2436 30.3301 26.2176 30.2394 24.1915 30.2394ZM24.1915 0C20.9835 0 17.9069 1.27437 15.6385 3.54276C13.3701 5.81116 12.0958 8.88776 12.0958 12.0958C12.0958 15.3038 13.3701 18.3804 15.6385 20.6488C17.9069 22.9171 20.9835 24.1915 24.1915 24.1915C27.3995 24.1915 30.4761 22.9171 32.7445 20.6488C35.0129 18.3804 36.2873 15.3038 36.2873 12.0958C36.2873 8.88776 35.0129 5.81116 32.7445 3.54276C30.4761 1.27437 27.3995 0 24.1915 0Z" fill="#0DCAF0" fill-opacity="0.941176"/>
</svg>
