<svg width="56" height="47" viewBox="0 0 56 47" fill="none" xmlns="http://www.w3.org/2000/svg">
<path fill-rule="evenodd" clip-rule="evenodd" d="M48.9716 0.401448C49.5933 0.0274963 50.3356 -0.0911066 51.0429 0.0705311C51.7501 0.232169 52.3672 0.661479 52.7647 1.26836L55.5422 5.50472C55.9042 6.05814 56.0592 6.72168 55.9796 7.37822C55.9 8.03475 55.5911 8.64208 55.1073 9.09299L55.0989 9.10422L55.0596 9.14069L54.8997 9.28938L54.2685 9.89257C50.7755 13.2805 47.3886 16.776 44.1124 20.374C37.9487 27.1522 30.629 36.0233 25.7025 44.6307C24.3278 47.0322 20.9696 47.5485 18.9777 45.4752L0.783761 26.5715C0.523029 26.3005 0.319443 25.9798 0.185106 25.6285C0.0507678 25.2773 -0.0115799 24.9026 0.0017678 24.5268C0.0151155 24.151 0.103886 23.7816 0.262804 23.4408C0.421722 23.1 0.647542 22.7946 0.926843 22.5427L6.42569 17.5825C6.90892 17.1469 7.52855 16.8927 8.17852 16.8635C8.8285 16.8344 9.4684 17.032 9.98872 17.4226L19.2722 24.3832C33.774 10.0833 41.9971 4.59572 48.9716 0.401448Z" fill="#0DCAF0" fill-opacity="0.941176"/>
</svg>
